<?xml version="1.0" encoding="UTF-8" standalone="no"?>
<svg
   xmlns:dc="http://purl.org/dc/elements/1.1/"
   xmlns:cc="http://creativecommons.org/ns#"
   xmlns:rdf="http://www.w3.org/1999/02/22-rdf-syntax-ns#"
   xmlns:svg="http://www.w3.org/2000/svg"
   xmlns="http://www.w3.org/2000/svg"
   id="svg8"
   version="1.1"
   viewBox="0 0 291.93033 129.85565"
   height="129.85565mm"
   width="291.93033mm">
  <defs
     id="defs2">
    <rect
       id="rect879"
       height="52.384827"
       width="164.63803"
       y="249.0952"
       x="158.22356" />
    <rect
       id="rect873"
       height="96.217033"
       width="313.2399"
       y="313.2399"
       x="156.0854" />
    <rect
       id="rect867"
       height="130.42754"
       width="342.10498"
       y="164.63803"
       x="152.87817" />
    <rect
       x="152.87817"
       y="164.63803"
       width="342.10498"
       height="130.42754"
       id="rect887" />
    <rect
       x="152.87817"
       y="164.63803"
       width="342.10498"
       height="130.42754"
       id="rect905" />
    <rect
       id="rect907"
       height="130.42754"
       width="342.10498"
       y="164.63803"
       x="152.87817" />
  </defs>
  <metadata
     id="metadata5">
    <rdf:RDF>
      <cc:Work
         rdf:about="">
        <dc:format>image/svg+xml</dc:format>
        <dc:type
           rdf:resource="http://purl.org/dc/dcmitype/StillImage" />
        <dc:title></dc:title>
      </cc:Work>
    </rdf:RDF>
  </metadata>
  <g
     transform="translate(149.59627,-169.91737)"
     id="layer1">
    <text
       transform="translate(-4.2763124,-80.180858)"
       style="font-style:normal;font-weight:normal;font-size:10.5833px;line-height:1.25;font-family:sans-serif;white-space:pre;shape-inside:url(#rect873);fill:#000000;fill-opacity:1;stroke:none;"
       id="text871"
       xml:space="preserve" />
    <text
       style="font-style:normal;font-weight:normal;font-size:10.5833px;line-height:1.25;font-family:sans-serif;white-space:pre;shape-inside:url(#rect879);fill:#000000;fill-opacity:1;stroke:none;"
       id="text877"
       xml:space="preserve" />
    <g
       transform="translate(-9.621703,-191.36498)"
       id="g994">
      <path
         id="path889"
         style="fill:#000000;fill-opacity:1;stroke:#000000;stroke-width:1.88685;stroke-linecap:round;stroke-linejoin:round;stroke-miterlimit:4;stroke-dasharray:none;stroke-opacity:1"
         d="m -61.71493,362.22565 -25.845968,24.69149 0.06873,24.22126 25.834083,-24.89406 z m -51.08112,26.03717 -25.89919,24.55767 -0.3359,76.36483 26.23974,-26.24026 z m 0.005,74.68224 -26.23974,27.10119 51.470241,0.14833 26.239744,-26.57669 z m 51.470245,0.67283 v -50.46101 l -26.239744,25.56692 0.0047,24.35511 z" />
      <g
         id="g978">
        <g
           style="font-style:normal;font-weight:normal;font-size:10.5833px;line-height:1.25;font-family:sans-serif;white-space:pre;shape-inside:url(#rect905);fill:#000000;fill-opacity:1;stroke:none"
           id="text899"
           transform="matrix(1.1000981,0,0,1.1000981,-197.62955,190.07194)"
           aria-label="LOREM">
          <path
             id="path944"
             style="font-style:normal;font-variant:normal;font-weight:600;font-stretch:normal;font-size:50.8px;font-family:Poppins;-inkscape-font-specification:'Poppins Semi-Bold'"
             d="m 156.38411,173.63027 v 35.4584 h 18.796 v -5.6388 h -11.684 v -29.8196 z" />
          <path
             id="path946"
             style="font-style:normal;font-variant:normal;font-weight:600;font-stretch:normal;font-size:50.8px;font-family:Poppins;-inkscape-font-specification:'Poppins Semi-Bold'"
             d="m 214.29531,191.25787 c 0,-10.6172 -8.0264,-18.1356 -18.1356,-18.1356 -10.0076,0 -18.1864,7.5184 -18.1864,18.1356 0,10.668 8.1788,18.1864 18.1864,18.1864 10.0584,0 18.1356,-7.5184 18.1356,-18.1864 z m -29.0068,0 c 0,-7.2136 4.4196,-11.7348 10.8712,-11.7348 6.4008,0 10.8204,4.5212 10.8204,11.7348 0,7.2136 -4.4196,11.8364 -10.8204,11.8364 -6.4516,0 -10.8712,-4.6228 -10.8712,-11.8364 z" />
          <path
             id="path948"
             style="font-style:normal;font-variant:normal;font-weight:600;font-stretch:normal;font-size:50.8px;font-family:Poppins;-inkscape-font-specification:'Poppins Semi-Bold'"
             d="m 238.38245,184.65387 c 0,3.2004 -1.778,5.2832 -5.7404,5.2832 h -5.9436 v -10.414 h 5.9436 c 3.9624,0 5.7404,1.9812 5.7404,5.1308 z m -18.796,-11.0236 v 35.4584 h 7.112 v -13.8176 h 3.3528 l 7.8232,13.8176 h 8.2296 l -8.4836,-14.3764 c 5.6896,-1.524 8.0772,-5.8928 8.0772,-10.2108 0,-5.9436 -4.2672,-10.8712 -12.8016,-10.8712 z" />
          <path
             id="path950"
             style="font-style:normal;font-variant:normal;font-weight:600;font-stretch:normal;font-size:50.8px;font-family:Poppins;-inkscape-font-specification:'Poppins Semi-Bold'"
             d="m 272.7042,173.57947 h -20.574 v 35.5092 h 20.574 v -5.7912 h -13.462 v -9.398 h 11.938 v -5.6388 h -11.938 v -8.89 h 13.462 z" />
          <path
             id="path952"
             style="font-style:normal;font-variant:normal;font-weight:600;font-stretch:normal;font-size:50.8px;font-family:Poppins;-inkscape-font-specification:'Poppins Semi-Bold'"
             d="m 279.1177,209.08867 h 7.112 v -23.0632 l 9.5504,23.0632 h 5.3848 l 9.4996,-23.0632 v 23.0632 h 7.112 v -35.4584 h -8.0264 l -11.2776,26.3652 -11.2776,-26.3652 h -8.0772 z" />
        </g>
        <g
           style="font-style:normal;font-weight:normal;font-size:10.5833px;line-height:1.25;font-family:sans-serif;white-space:pre;shape-inside:url(#rect907);fill:#000000;fill-opacity:1;stroke:none"
           id="text903"
           transform="matrix(1.1000981,0,0,1.1000981,-197.35012,246.70163)"
           aria-label="ipsum">
          <path
             id="path955"
             style="font-style:normal;font-variant:normal;font-weight:300;font-stretch:normal;font-size:50.8px;font-family:Poppins;-inkscape-font-specification:'Poppins Light'"
             d="m 156.94291,209.08867 h 3.556 v -27.7368 h -3.556 z m 1.778,-32.9692 c 1.4224,0 2.5908,-1.1176 2.5908,-2.6416 0,-1.524 -1.1684,-2.5908 -2.5908,-2.5908 -1.4224,0 -2.5908,1.0668 -2.5908,2.5908 0,1.524 1.1684,2.6416 2.5908,2.6416 z" />
          <path
             id="path957"
             style="font-style:normal;font-variant:normal;font-weight:300;font-stretch:normal;font-size:50.8px;font-family:Poppins;-inkscape-font-specification:'Poppins Light'"
             d="m 172.0567,187.44787 v -6.096 h -3.5052 v 40.8432 h 3.5052 v -19.2024 c 1.6256,3.4544 5.4864,6.5024 11.0236,6.5024 7.5692,0 13.208,-5.6388 13.208,-14.3256 0,-8.6868 -5.6388,-14.224 -13.208,-14.224 -5.5372,0 -9.398,2.9972 -11.0236,6.5024 z m 20.6248,7.7216 c 0,7.0104 -4.4704,11.2268 -10.3124,11.2268 -5.6388,0 -10.3124,-4.2672 -10.3124,-11.176 0,-6.9088 4.6736,-11.176 10.3124,-11.176 5.842,0 10.3124,4.064 10.3124,11.1252 z" />
          <path
             id="path959"
             style="font-style:normal;font-variant:normal;font-weight:300;font-stretch:normal;font-size:50.8px;font-family:Poppins;-inkscape-font-specification:'Poppins Light'"
             d="m 222.08358,201.72267 c -0.1524,-9.8044 -16.5608,-5.7912 -16.5608,-13.3096 0,-2.4384 2.3368,-4.4196 6.0452,-4.4196 4.2164,0 6.5024,2.3368 6.7056,5.4356 h 3.556 c -0.3048,-5.334 -4.2164,-8.4836 -10.16,-8.4836 -5.842,0 -9.7536,3.4036 -9.7536,7.5184 0,10.414 16.6624,6.4008 16.6624,13.2588 0,2.6416 -2.2352,4.7752 -6.1976,4.7752 -4.5212,0 -7.1628,-2.1844 -7.4676,-5.2324 h -3.6576 c 0.4572,5.08 4.8768,8.2296 11.176,8.2296 5.7404,0 9.652,-3.302 9.652,-7.7724 z" />
          <path
             id="path961"
             style="font-style:normal;font-variant:normal;font-weight:300;font-stretch:normal;font-size:50.8px;font-family:Poppins;-inkscape-font-specification:'Poppins Light'"
             d="m 252.80568,181.35187 h -3.556 v 15.0876 c 0,6.7564 -3.6068,10.0076 -8.7884,10.0076 -5.08,0 -8.4328,-3.1496 -8.4328,-9.2964 v -15.7988 h -3.5052 v 16.2052 c 0,8.128 4.9784,11.9888 11.2776,11.9888 4.1148,0 7.7724,-1.8288 9.4488,-5.334 v 4.8768 h 3.556 z" />
          <path
             id="path963"
             style="font-style:normal;font-variant:normal;font-weight:300;font-stretch:normal;font-size:50.8px;font-family:Poppins;-inkscape-font-specification:'Poppins Light'"
             d="m 301.46255,209.08867 h 3.5052 v -16.256 c 0,-8.128 -4.8768,-11.9888 -11.0236,-11.9888 -4.4196,0 -8.4836,2.286 -10.0076,6.8072 -1.6764,-4.6228 -5.6388,-6.8072 -10.2616,-6.8072 -3.9116,0 -7.4168,1.778 -9.1948,5.2832 v -4.7752 h -3.556 v 27.7368 h 3.556 v -15.0368 c 0,-6.7564 3.5052,-10.1092 8.5852,-10.1092 4.9276,0 8.1788,3.1496 8.1788,9.2964 v 15.8496 h 3.5052 v -15.0368 c 0,-6.7564 3.556,-10.1092 8.5852,-10.1092 4.9276,0 8.128,3.1496 8.128,9.2964 z" />
        </g>
      </g>
    </g>
  </g>
</svg>
